<svg xmlns="http://www.w3.org/2000/svg" width="655" height="327" viewBox="0 0 655 327" role="img" aria-labelledby="title desc">
  <title id="title">Microsoft 365 관리 센터의 Teams 연결 서비스 계정</title>
  <desc id="desc">ServiceAccount 사용자 프로필에서 계정 탭과 합성 사용자 이름을 보여 주는 화면입니다.</desc>
  <rect width="655" height="327" fill="#ffffff"/>
  <circle cx="72" cy="75" r="50" fill="#0878d1"/>
  <text x="72" y="92" text-anchor="middle" font-family="Segoe UI, Arial, sans-serif" font-size="42" font-weight="600" fill="#ffffff">SE</text>
  <text x="28" y="141" font-family="Segoe UI, Arial, sans-serif" font-size="14" fill="#0067b8">Change photo</text>
  <text x="142" y="63" font-family="Segoe UI, Arial, sans-serif" font-size="29" font-weight="700" fill="#1f1f1f">ServiceAccount</text>
  <g font-family="Segoe UI, Arial, sans-serif" font-size="14" fill="#111111">
    <text x="166" y="100">Reset password</text>
    <text x="305" y="100">Block sign-in</text>
    <text x="426" y="100">Delete user</text>
  </g>
  <g fill="none" stroke="#0067b8" stroke-width="1.4">
    <circle cx="148" cy="92" r="5"/>
    <path d="M151 96l7 7m-2-2l3-3m-6 0l3 3"/>
    <circle cx="288" cy="94" r="8"/>
    <path d="M282 88l12 12"/>
    <circle cx="408" cy="91" r="4"/>
    <path d="M408 95v9m-5-4h10m5-5v9m-4-4h8"/>
  </g>
  <g font-family="Segoe UI, Arial, sans-serif" font-size="14" fill="#242424">
    <text x="30" y="204">Account</text>
    <text x="110" y="204">Devices</text>
    <text x="185" y="204">Licenses and apps</text>
    <text x="325" y="204">Mail</text>
    <text x="378" y="204">OneDrive</text>
  </g>
  <rect x="30" y="219" width="54" height="2" fill="#115ea3"/>
  <text x="22" y="261" font-family="Segoe UI, Arial, sans-serif" font-size="14" font-weight="600" fill="#242424">Username and email</text>
  <text x="453" y="261" font-family="Segoe UI, Arial, sans-serif" font-size="14" font-weight="600" fill="#242424">Aliases</text>
  <text x="22" y="286" font-family="Segoe UI, Arial, sans-serif" font-size="14" fill="#242424">svc-teams-notification@example.onmicrosoft.com</text>
  <text x="22" y="312" font-family="Segoe UI, Arial, sans-serif" font-size="14" fill="#0067b8">Manage username and email</text>
  <text x="453" y="286" font-family="Segoe UI, Arial, sans-serif" font-size="14" fill="#0067b8">Manage username and email</text>
</svg>
